<?xml version="1.0" standalone="no"?>
<!DOCTYPE svg PUBLIC "-//W3C//DTD SVG 20010904//EN"
 "http://www.w3.org/TR/2001/REC-SVG-20010904/DTD/svg10.dtd">
<svg version="1.0" xmlns="http://www.w3.org/2000/svg"
 width="1024.000000pt" height="1024.000000pt" viewBox="0 0 1024.000000 1024.000000"
 preserveAspectRatio="xMidYMid meet">
<metadata>
Created by potrace 1.11, written by Peter Selinger 2001-2013
</metadata>
<g transform="translate(0.000000,1024.000000) scale(0.100000,-0.100000)"
fill="#000000" stroke="none">
<path d="M2510 9602 c0 -4 -46 -8 -103 -8 -129 -2 -324 -19 -402 -37 -11 -2
-42 -8 -68 -11 -27 -4 -59 -9 -70 -12 -12 -2 -38 -7 -57 -10 -19 -3 -42 -10
-51 -15 -9 -4 -19 -6 -22 -3 -3 3 -12 2 -19 -2 -7 -5 -21 -9 -30 -10 -10 -1
-20 -3 -23 -4 -3 -1 -8 -3 -12 -5 -5 -1 -20 -5 -34 -9 -14 -4 -32 -9 -40 -10
-8 -2 -21 -6 -29 -9 -8 -4 -26 -9 -40 -11 -14 -3 -26 -5 -27 -7 -2 -1 -6 -2
-10 -4 -5 -1 -15 -4 -23 -7 -8 -3 -44 -16 -80 -28 -122 -42 -275 -104 -282
-115 -4 -5 -8 -6 -8 -2 0 5 -17 -1 -38 -11 -20 -11 -84 -43 -141 -72 -57 -28
-120 -61 -140 -72 -91 -51 -126 -73 -129 -80 -2 -4 -9 -8 -16 -8 -6 0 -21 -7
-31 -15 -11 -8 -56 -38 -100 -67 -44 -29 -84 -56 -90 -61 -5 -4 -55 -40 -110
-78 -55 -39 -106 -77 -113 -84 -14 -13 -20 -133 -8 -153 3 -6 2 -13 -3 -17 -7
-4 -7 -15 -1 -30 6 -16 6 -25 0 -25 -6 0 -6 -9 -1 -23 5 -13 5 -30 0 -39 -6
-10 -6 -19 0 -23 7 -3 7 -15 1 -30 -5 -13 -5 -27 -1 -29 5 -3 5 -24 1 -46 -4
-22 -3 -43 1 -46 5 -3 5 -13 0 -22 -6 -11 -6 -24 0 -34 5 -9 5 -19 0 -22 -9
-6 -7 -54 3 -63 3 -3 1 -14 -4 -24 -7 -12 -7 -20 0 -24 7 -4 7 -12 0 -25 -7
-13 -7 -21 0 -25 6 -4 8 -11 4 -16 -7 -12 -9 -214 -1 -226 3 -5 2 -15 -3 -23
-5 -8 -5 -21 1 -31 5 -10 5 -20 0 -23 -4 -3 -6 -18 -4 -33 5 -32 5 -36 1 -85
-2 -21 -1 -38 2 -38 7 0 4 -66 -4 -79 -4 -5 -2 -12 3 -16 7 -3 7 -15 1 -30 -5
-13 -5 -27 -1 -29 5 -3 5 -24 1 -46 -4 -22 -3 -43 1 -46 5 -3 5 -13 0 -22 -6
-11 -6 -24 0 -34 5 -9 5 -19 0 -22 -9 -6 -7 -54 3 -63 3 -3 1 -14 -4 -24 -7
-12 -7 -20 0 -24 7 -4 7 -12 0 -25 -7 -13 -7 -21 0 -25 6 -4 8 -11 4 -16 -7
-12 -9 -214 -1 -226 3 -5 2 -15 -3 -23 -5 -8 -5 -21 1 -31 5 -10 5 -20 0 -23
-4 -3 -6 -18 -4 -33 5 -32 5 -36 1 -85 -2 -21 -1 -38 2 -38 7 0 4 -66 -4 -79
-4 -5 -2 -12 3 -16 7 -3 7 -15 1 -30 -5 -13 -5 -27 -1 -29 5 -3 5 -24 1 -46
-4 -22 -3 -43 1 -46 5 -3 5 -13 0 -22 -6 -11 -6 -24 0 -34 5 -9 5 -19 0 -22
-9 -6 -7 -54 3 -63 3 -3 1 -14 -4 -24 -7 -12 -7 -20 0 -24 7 -4 7 -12 0 -25
-7 -13 -7 -21 0 -25 6 -4 8 -11 4 -16 -7 -12 -9 -214 -1 -226 3 -5 2 -15 -3
-23 -5 -8 -5 -21 1 -31 5 -10 5 -20 0 -23 -4 -3 -6 -18 -4 -33 5 -32 5 -36 1
-85 -2 -21 -1 -38 2 -38 7 0 4 -66 -4 -79 -4 -5 -2 -12 3 -16 7 -3 7 -15 1
-30 -5 -13 -5 -27 -1 -29 5 -3 5 -24 1 -46 -4 -22 -3 -43 1 -46 5 -3 5 -13 0
-22 -6 -11 -6 -24 0 -34 5 -9 5 -19 0 -22 -9 -6 -7 -54 3 -63 3 -3 1 -14 -4
-24 -7 -12 -7 -20 0 -24 7 -4 7 -12 0 -25 -7 -13 -7 -21 0 -25 6 -4 8 -11 4
-16 -7 -12 -9 -214 -1 -226 3 -5 2 -15 -3 -23 -5 -8 -5 -21 1 -31 5 -10 5 -20
0 -23 -4 -3 -6 -18 -4 -33 5 -32 5 -36 1 -85 -2 -21 -1 -38 2 -38 7 0 4 -66
-4 -79 -4 -5 -2 -12 3 -16 7 -3 7 -15 1 -30 -5 -13 -5 -27 -1 -29 5 -3 5 -24
1 -46 -4 -22 -3 -43 1 -46 5 -3 5 -13 0 -22 -6 -11 -6 -24 0 -34 5 -9 5 -19 0
-22 -9 -6 -7 -54 3 -63 3 -3 1 -14 -4 -24 -7 -12 -7 -20 0 -24 7 -4 7 -12 0
-25 -7 -13 -7 -21 0 -25 6 -4 8 -11 4 -16 -7 -12 -9 -214 -1 -226 3 -5 2 -15
-3 -23 -5 -8 -5 -21 1 -31 5 -10 5 -20 0 -23 -4 -3 -6 -18 -4 -33 5 -32 5 -36
1 -85 -2 -21 -1 -38 2 -38 7 0 4 -66 -4 -79 -4 -5 -2 -12 3 -16 7 -3 7 -15 1
-30 -5 -13 -5 -27 -1 -29 5 -3 5 -24 1 -46 -4 -22 -3 -43 1 -46 5 -3 5 -13 0
-22 -6 -11 -6 -24 0 -34 5 -9 5 -19 0 -22 -9 -6 -7 -54 3 -63 3 -3 1 -14 -4
-24 -7 -12 -7 -20 0 -24 7 -4 7 -12 0 -25 -7 -13 -7 -21 0 -25 6 -4 8 -11 4
-16 -7 -12 -9 -214 -1 -226 3 -5 2 -15 -3 -23 -5 -8 -5 -21 1 -31 5 -10 5 -20
0 -23 -4 -3 -6 -18 -4 -33 5 -32 5 -36 1 -85 -2 -21 -1 -38 2 -38 7 0 4 -66
-4 -79 -4 -5 -2 -12 3 -16 7 -3 7 -15 1 -30 -5 -13 -5 -27 -1 -29 5 -3 5 -24
1 -46 -4 -22 -3 -43 1 -46 5 -3 5 -13 0 -22 -6 -11 -6 -24 0 -34 5 -9 5 -19 0
-22 -9 -6 -7 -54 3 -63 3 -3 1 -14 -4 -24 -7 -12 -7 -20 0 -24 7 -4 7 -12 0
-25 -7 -13 -7 -21 0 -25 6 -4 8 -11 4 -16 -7 -12 -9 -214 -1 -226 3 -5 2 -15
-3 -23 -5 -8 -5 -21 1 -31 5 -10 5 -20 0 -23 -4 -3 -6 -18 -4 -33 5 -32 5 -36
1 -85 -2 -21 -1 -38 2 -38 7 0 4 -66 -4 -79 -4 -5 -2 -12 3 -16 7 -3 7 -15 1
-30 -5 -13 -5 -27 -1 -29 5 -3 5 -24 1 -46 -4 -22 -3 -43 1 -46 5 -3 5 -13 0
-22 -6 -11 -6 -24 0 -34 5 -9 5 -19 0 -22 -9 -6 -7 -54 3 -63 3 -3 1 -14 -4
-24 -7 -12 -7 -20 0 -24 7 -4 7 -12 0 -25 -7 -13 -7 -21 0 -25 6 -4 8 -11 4
-16 -7 -12 -9 -214 -1 -226 3 -5 2 -15 -3 -23 -5 -8 -5 -21 1 -31 5 -10 5 -20
0 -23 -4 -3 -6 -18 -4 -33 5 -32 5 -36 1 -86 -2 -20 -1 -37 2 -37 7 0 4 -66
-4 -79 -4 -5 -2 -12 3 -16 7 -3 7 -15 1 -30 -5 -13 -5 -27 -1 -29 5 -3 5 -24
1 -46 -4 -22 -4 -40 1 -40 5 0 5 -10 1 -22 -9 -24 -5 -58 6 -58 10 0 72 45 72
53 0 4 4 7 9 7 5 0 91 59 190 130 100 72 184 130 188 130 3 0 13 7 22 16 30
29 356 257 475 332 154 96 345 194 511 262 59 23 123 47 140 50 2 1 43 15 90
31 47 16 97 31 110 33 14 3 28 7 33 10 5 3 22 8 38 10 16 3 40 8 54 12 14 3
34 7 45 9 11 2 34 7 50 10 235 46 379 59 630 57 94 0 190 -3 215 -7 25 -3 72
-8 105 -10 66 -6 120 -12 120 -15 0 -1 14 -3 30 -5 83 -10 112 -15 135 -20 30
-7 61 -14 94 -19 13 -2 33 -7 45 -11 11 -3 33 -8 48 -11 16 -3 62 -14 103 -26
41 -11 81 -21 88 -21 6 0 12 -4 12 -9 0 -4 8 -8 18 -8 28 0 213 -63 327 -111
17 -7 33 -13 36 -13 58 -8 587 -284 636 -332 7 -7 29 -22 50 -35 21 -13 43
-27 48 -32 42 -34 176 -127 184 -127 8 0 153 100 346 238 24 16 72 43 108 58
20 10 37 20 37 24 0 4 20 15 45 26 25 10 45 22 45 26 0 4 5 8 10 8 6 0 51 20
100 45 50 24 94 45 98 46 4 0 25 9 47 19 71 32 238 97 310 119 39 13 79 27 90
32 11 5 31 11 45 13 14 3 26 5 28 7 1 1 5 2 10 3 4 1 34 10 67 20 33 10 74 20
90 23 17 3 38 9 48 14 9 5 17 8 17 5 0 -3 14 -1 32 4 17 5 47 12 67 15 37 5
65 10 111 20 14 3 41 7 60 9 19 3 51 7 71 11 219 37 654 37 879 -1 19 -3 49
-8 65 -10 31 -5 110 -20 155 -30 14 -3 36 -7 48 -10 41 -8 171 -45 267 -75 22
-7 43 -12 48 -11 4 1 7 -2 7 -7 0 -5 15 -12 33 -15 17 -3 68 -22 112 -41 44
-19 85 -35 92 -35 7 0 13 -5 13 -12 0 -6 3 -9 6 -5 3 3 39 -11 79 -33 41 -21
76 -35 79 -32 3 3 6 0 6 -6 0 -6 10 -14 23 -18 12 -4 51 -24 86 -45 34 -22 65
-39 67 -39 3 0 70 -43 89 -57 6 -5 22 -14 37 -22 15 -8 37 -22 47 -33 11 -10
24 -18 29 -18 5 0 17 -9 27 -20 10 -11 22 -20 27 -20 4 0 16 -8 27 -18 10 -9
41 -32 67 -50 73 -50 256 -181 277 -197 9 -8 21 -15 26 -15 5 0 11 -4 13 -8 2
-5 32 -28 68 -52 36 -24 71 -49 77 -56 7 -7 29 -22 50 -35 21 -13 40 -25 43
-28 5 -6 87 -63 105 -73 6 -4 10 8 10 28 0 19 -3 34 -6 34 -3 0 -3 22 1 50 3
27 3 55 -1 62 -4 6 -3 20 2 29 6 12 5 20 -1 24 -6 4 -8 11 -4 16 9 16 10 79 1
79 -4 0 -5 5 -2 10 8 13 9 159 2 167 -4 3 -2 14 3 24 7 12 7 20 0 24 -6 4 -8
11 -4 16 9 16 10 79 1 79 -4 0 -5 5 -2 10 8 13 9 159 2 167 -4 3 -2 14 3 24 7
12 7 20 0 24 -6 4 -8 11 -4 16 9 16 10 79 1 79 -4 0 -5 5 -2 10 8 13 9 159 2
167 -4 3 -2 14 3 24 7 12 7 20 0 24 -6 4 -8 11 -4 16 9 16 10 79 1 79 -4 0 -5
5 -2 10 8 13 9 159 2 167 -4 3 -2 14 3 24 7 12 7 20 0 24 -6 4 -8 11 -4 16 9
16 10 79 1 79 -4 0 -5 5 -2 10 8 13 9 159 2 167 -4 3 -2 14 3 24 7 12 7 20 0
24 -6 4 -8 11 -4 16 9 16 10 79 1 79 -4 0 -5 5 -2 10 8 13 9 159 2 167 -4 3
-2 14 3 24 7 12 7 20 0 24 -6 4 -8 11 -4 16 9 16 10 79 1 79 -4 0 -5 5 -2 10
8 13 9 159 2 167 -4 3 -2 14 3 24 7 12 7 20 0 24 -6 4 -8 11 -4 16 9 16 10 79
1 79 -4 0 -5 5 -2 10 8 13 9 159 2 167 -4 3 -2 14 3 24 7 12 7 20 0 24 -6 4
-8 11 -4 16 9 16 10 79 1 79 -4 0 -5 5 -2 10 8 13 9 159 2 167 -4 3 -2 14 3
24 7 12 7 20 0 24 -6 4 -8 11 -4 16 9 16 10 79 1 79 -4 0 -5 5 -2 10 8 13 9
159 2 167 -4 3 -2 14 3 24 7 12 7 20 0 24 -6 4 -8 11 -4 16 9 16 10 79 1 79
-4 0 -5 5 -2 10 8 13 9 159 2 167 -4 3 -2 14 3 24 7 12 7 20 0 24 -6 4 -8 11
-4 16 9 16 10 79 1 79 -4 0 -5 5 -2 10 8 13 9 159 2 167 -4 3 -2 14 3 24 7 12
7 20 0 24 -6 4 -8 11 -4 16 9 16 10 79 1 79 -4 0 -5 5 -2 10 8 13 9 159 2 167
-4 3 -2 14 3 24 7 12 7 20 0 24 -6 4 -8 11 -4 16 9 16 10 79 1 79 -4 0 -5 5
-2 10 8 13 9 159 2 167 -4 3 -2 14 3 24 7 12 7 20 0 24 -6 4 -8 11 -4 16 9 16
10 79 1 79 -4 0 -5 5 -2 10 8 13 9 159 2 167 -4 3 -2 14 3 24 7 12 7 20 0 24
-6 4 -8 11 -4 16 9 16 10 79 1 79 -4 0 -5 5 -2 10 8 13 9 159 2 167 -4 3 -2
14 3 24 7 12 7 20 0 24 -6 4 -8 11 -4 16 9 16 10 79 1 79 -4 0 -5 5 -2 10 8
13 9 159 2 167 -4 3 -2 14 3 24 7 12 7 20 0 24 -6 4 -8 11 -4 16 9 16 10 79 1
79 -4 0 -5 5 -2 10 8 13 9 159 2 167 -4 3 -2 14 3 24 7 12 7 20 0 24 -6 4 -8
11 -4 16 9 16 10 79 1 79 -4 0 -5 5 -2 10 8 13 9 159 2 167 -4 3 -2 14 3 24 7
12 7 20 0 24 -6 4 -8 11 -4 16 9 16 10 79 1 79 -4 0 -5 5 -2 10 8 13 9 159 2
167 -4 3 -2 14 3 24 7 12 7 20 0 24 -6 4 -8 11 -4 16 9 16 10 79 1 79 -4 0 -5
5 -2 10 8 13 9 159 2 167 -4 3 -2 14 3 24 7 12 7 20 0 24 -6 4 -8 11 -4 16 9
16 10 79 1 79 -4 0 -5 5 -2 10 8 13 9 159 2 167 -4 3 -2 14 3 24 7 12 7 20 0
24 -6 4 -8 11 -4 16 9 16 10 79 1 79 -4 0 -5 5 -2 10 8 13 9 159 2 167 -4 3
-2 14 3 24 7 12 7 20 0 24 -6 4 -8 11 -4 16 9 16 10 79 1 79 -4 0 -5 5 -2 10
8 13 9 159 2 167 -4 3 -2 14 3 24 7 12 7 20 0 24 -6 4 -8 11 -4 16 9 16 10 79
1 79 -4 0 -5 5 -2 10 5 9 6 60 4 182 0 19 -13 30 -164 136 -131 92 -267 182
-315 208 -19 10 -37 22 -40 25 -7 7 -158 89 -250 134 -41 20 -87 43 -101 50
-33 18 -258 107 -329 131 -30 11 -57 21 -60 24 -3 3 -14 6 -25 8 -11 2 -40 10
-65 19 -25 8 -52 16 -60 18 -8 2 -62 15 -120 30 -58 14 -118 28 -135 30 -38 6
-70 13 -70 15 0 1 -16 3 -35 6 -33 4 -49 6 -110 18 -29 5 -97 13 -190 22 -36
4 -113 7 -172 8 -60 1 -108 3 -108 6 0 3 -24 4 -52 3 -29 -1 -108 -5 -176 -7
-68 -3 -140 -7 -160 -10 -20 -3 -64 -8 -97 -11 -55 -6 -103 -12 -144 -20 -9
-1 -41 -6 -71 -11 -57 -8 -68 -10 -72 -13 -2 -2 -14 -4 -28 -6 -28 -4 -53 -9
-125 -25 -27 -6 -59 -13 -70 -15 -11 -2 -20 -4 -20 -5 0 -1 -7 -3 -15 -5 -91
-18 -447 -130 -527 -165 -13 -6 -33 -14 -45 -19 -111 -44 -213 -88 -261 -112
-31 -16 -59 -29 -62 -29 -3 0 -44 -20 -93 -44 -48 -25 -107 -55 -132 -68 -25
-13 -48 -27 -52 -33 -4 -5 -8 -6 -8 -1 0 5 -8 2 -17 -6 -10 -8 -43 -29 -73
-45 -63 -34 -99 -55 -114 -65 -54 -38 -181 -118 -190 -120 -10 -3 -76 36 -187
110 -27 17 -53 32 -58 32 -5 0 -11 3 -13 8 -1 4 -21 17 -43 28 -22 12 -73 40
-114 63 -41 22 -78 41 -82 41 -5 0 -9 5 -9 10 0 6 -4 10 -10 10 -5 0 -70 29
-142 64 -73 35 -182 85 -243 110 -60 26 -119 51 -130 57 -12 6 -27 11 -35 13
-8 2 -24 6 -35 10 -97 36 -126 47 -165 57 -25 7 -48 17 -51 22 -4 6 -14 7 -23
4 -9 -4 -16 -3 -16 2 0 4 -6 8 -12 9 -7 0 -47 10 -88 22 -93 27 -225 60 -265
67 -44 8 -60 11 -60 13 0 1 -13 4 -30 5 -16 2 -41 6 -55 10 -14 4 -36 8 -50
10 -14 2 -25 4 -25 5 0 1 -13 3 -30 5 -16 2 -49 6 -72 9 -136 19 -241 28 -355
31 -60 2 -112 5 -114 8 -3 3 -18 2 -32 -3 -15 -4 -37 -3 -50 1 -12 5 -22 5
-22 1z m53 -967 c20 0 37 4 37 8 0 5 5 5 11 2 6 -4 56 -9 110 -11 55 -1 115
-5 132 -8 18 -2 59 -8 92 -12 33 -4 62 -8 65 -9 8 -2 91 -16 124 -21 16 -3 32
-6 35 -8 3 -2 22 -7 41 -10 53 -8 215 -51 305 -81 44 -15 85 -28 90 -29 6 -2
19 -6 30 -10 11 -5 34 -13 50 -18 36 -13 74 -29 135 -56 25 -10 55 -23 68 -27
13 -4 55 -22 92 -41 38 -19 74 -34 80 -34 5 0 10 -4 10 -10 0 -5 3 -9 8 -8 11
3 100 -40 107 -52 3 -5 15 -10 26 -10 10 0 19 -4 19 -10 0 -5 4 -10 10 -10 22
0 377 -220 392 -243 5 -8 11 -128 10 -202 -1 -56 -2 -247 -2 -312 0 -46 0
-144 0 -218 -1 -74 1 -139 5 -144 3 -5 1 -12 -5 -16 -6 -4 -8 -11 -4 -16 3 -5
5 -65 5 -132 -1 -67 -1 -176 -1 -242 0 -142 -1 -365 -2 -374 0 -3 0 -10 1 -16
2 -10 1 -290 0 -303 -1 -4 -1 -11 0 -17 1 -5 2 -39 2 -75 0 -36 -1 -114 -1
-175 0 -60 0 -147 0 -192 0 -46 0 -144 0 -218 -1 -74 1 -139 5 -144 3 -5 1
-12 -5 -16 -6 -4 -8 -11 -4 -16 3 -5 5 -65 5 -132 -1 -67 -1 -176 -1 -242 0
-142 -1 -365 -2 -374 0 -3 0 -10 1 -16 2 -10 1 -290 0 -303 -1 -4 -1 -11 0
-17 1 -5 2 -39 2 -75 0 -36 -1 -114 -1 -175 0 -60 0 -147 0 -192 0 -46 0 -144
0 -218 -1 -74 1 -139 5 -144 3 -5 1 -12 -5 -16 -6 -4 -8 -11 -4 -16 3 -5 5
-65 5 -132 -1 -67 -1 -176 -1 -242 0 -142 -1 -365 -2 -374 0 -3 0 -9 1 -13 2
-8 3 -113 2 -158 l-1 -20 -40 20 c-22 11 -40 18 -40 14 0 -4 -6 -2 -12 4 -21
16 -367 141 -438 157 -8 2 -15 4 -15 5 0 1 -6 3 -45 13 -62 16 -80 21 -115 32
-22 7 -57 16 -79 19 -21 4 -42 8 -46 11 -3 2 -20 7 -36 9 -16 3 -40 8 -54 11
-54 13 -117 25 -160 31 -19 2 -46 7 -60 10 -30 6 -145 22 -215 30 -27 3 -63 7
-80 9 -162 23 -603 23 -805 0 -19 -2 -59 -6 -88 -9 -70 -8 -120 -15 -162 -23
-19 -4 -43 -7 -52 -8 -10 -2 -19 -3 -20 -5 -3 -2 -11 -3 -73 -14 -39 -6 -97
-17 -110 -20 -5 -2 -23 -6 -40 -10 -16 -4 -37 -10 -45 -13 -8 -3 -24 -8 -35
-10 -34 -6 -167 -43 -215 -60 -59 -20 -181 -63 -200 -70 -8 -3 -19 -7 -25 -9
-5 -1 -47 -18 -92 -37 -44 -20 -84 -33 -87 -30 -3 4 -6 1 -6 -5 0 -7 -7 -12
-15 -12 -14 0 -21 21 -15 45 3 11 2 15 -3 55 -2 14 1 33 5 43 6 11 5 17 -2 17
-8 0 -8 6 0 20 8 14 8 20 0 20 -8 0 -8 6 0 20 8 14 8 20 0 20 -8 0 -8 6 0 20
7 14 8 26 0 39 -7 14 -7 22 1 27 7 4 7 10 1 16 -7 7 -7 19 -2 34 6 14 5 26 -1
29 -6 4 -6 13 0 23 6 10 6 23 0 34 -6 10 -5 19 1 23 5 3 6 15 0 29 -4 12 -4
29 0 36 5 8 4 22 -1 32 -7 12 -6 18 1 18 7 0 8 6 0 19 -7 14 -7 22 1 27 7 4 7
10 1 16 -7 7 -7 19 -2 34 6 14 5 26 -1 29 -6 4 -6 13 0 23 6 10 6 23 0 34 -6
10 -5 19 1 23 5 3 6 15 0 29 -4 12 -4 29 0 36 5 8 4 22 -1 32 -7 12 -6 18 1
18 7 0 8 6 0 19 -7 14 -7 22 1 27 7 4 7 10 1 16 -7 7 -7 19 -2 34 6 14 5 26
-1 29 -6 4 -6 13 0 23 6 10 6 23 0 34 -6 10 -5 19 1 23 5 3 6 15 0 29 -4 12
-4 29 0 36 5 8 4 22 -1 32 -7 12 -6 18 1 18 7 0 8 6 0 19 -7 14 -7 22 1 27 7
4 7 10 1 16 -7 7 -7 19 -2 34 6 14 5 26 -1 29 -6 4 -6 13 0 23 6 10 6 23 0 34
-6 10 -5 19 1 23 5 3 6 15 0 29 -4 12 -4 29 0 36 5 8 4 22 -1 32 -6 12 -6 25
1 38 8 14 8 20 0 20 -8 0 -8 6 0 20 8 14 8 20 0 20 -8 0 -8 6 0 20 8 14 8 20
0 20 -6 0 -8 5 -4 11 10 17 11 52 2 71 -5 9 -4 19 2 23 6 4 6 15 0 30 -5 14
-6 25 -1 25 5 0 5 17 1 38 -3 20 -3 49 1 65 4 16 3 27 -2 27 -7 0 -7 6 0 17 6
11 6 24 0 35 -6 12 -6 25 1 38 8 14 8 20 0 20 -8 0 -8 6 0 20 8 14 8 20 0 20
-8 0 -8 6 0 20 8 14 8 20 0 20 -6 0 -8 5 -4 11 10 17 11 52 2 71 -5 9 -4 19 2
23 6 4 6 15 0 30 -5 14 -6 25 -2 25 4 0 7 11 7 25 0 14 -3 25 -7 25 -4 0 -3
12 2 26 6 15 6 23 1 19 -6 -3 -6 6 -1 25 5 16 5 30 2 30 -9 0 -7 64 3 79 3 6
1 11 -5 11 -8 0 -8 6 0 20 8 14 8 20 0 20 -8 0 -8 6 0 20 8 14 8 20 0 20 -6 0
-8 5 -4 11 10 17 11 52 2 71 -5 9 -4 19 2 23 6 4 6 15 0 30 -5 14 -6 25 -1 25
5 0 5 17 1 38 -3 20 -3 49 1 65 4 16 3 27 -2 27 -7 0 -7 6 0 17 6 11 6 24 0
35 -6 12 -6 25 1 38 8 14 8 20 0 20 -8 0 -8 6 0 20 8 14 8 20 0 20 -8 0 -8 6
0 20 8 14 8 20 0 20 -6 0 -8 5 -4 11 10 17 11 52 2 71 -5 9 -4 19 2 23 6 4 6
15 0 30 -5 14 -6 25 -2 25 4 0 7 11 7 25 0 14 -3 25 -7 25 -4 0 -3 12 2 26 6
15 6 23 1 19 -6 -3 -6 6 -1 25 5 16 5 30 2 30 -9 0 -7 64 3 79 3 6 1 11 -5 11
-8 0 -8 6 0 20 8 14 8 20 0 20 -8 0 -8 6 0 20 8 14 8 20 0 20 -6 0 -8 5 -4 11
10 17 11 52 2 71 -5 9 -4 19 2 23 6 4 6 15 0 30 -5 14 -6 25 -1 25 5 0 5 17 1
38 -3 20 -3 49 1 65 4 16 3 27 -2 27 -7 0 -7 6 0 17 6 11 6 24 0 35 -6 12 -6
25 1 38 8 14 8 20 0 20 -8 0 -8 6 0 20 8 14 8 20 0 20 -8 0 -8 6 0 20 8 14 8
20 0 20 -8 0 -8 6 0 20 7 14 8 26 0 39 -7 14 -7 22 1 27 7 4 7 10 1 16 -7 7
-7 19 -2 34 6 14 5 26 -1 29 -6 4 -6 13 0 23 6 10 6 23 0 34 -6 10 -5 19 1 23
5 3 6 15 0 29 -4 12 -4 29 0 36 5 8 4 22 -1 32 -7 12 -6 18 1 18 7 0 8 6 0 19
-7 14 -7 22 1 27 7 4 7 10 1 16 -7 7 -7 19 -2 34 6 14 6 26 0 29 -6 4 -7 13
-1 23 6 11 6 24 0 34 -6 10 -6 19 0 23 6 3 7 15 1 29 -4 12 -4 29 0 36 5 8 4
22 -1 32 -7 12 -6 18 1 18 7 0 8 6 0 19 -7 14 -7 22 1 27 7 4 7 10 1 16 -7 7
-7 19 -2 34 6 14 6 26 0 29 -6 4 -7 13 -1 23 6 11 6 24 0 34 -6 10 -6 19 0 23
6 3 7 15 1 29 -4 12 -4 29 0 36 5 8 4 22 -1 32 -7 12 -6 18 1 18 7 0 8 6 0 19
-7 14 -7 22 1 27 7 4 7 10 1 16 -7 7 -7 19 -2 34 6 14 5 26 -1 29 -6 4 -6 13
0 23 6 10 6 23 0 34 -6 10 -5 19 1 23 5 3 6 15 0 29 -4 12 -4 29 0 36 5 8 4
22 -1 32 -6 12 -6 25 1 38 8 14 8 20 0 20 -8 0 -8 6 0 20 8 14 8 20 0 20 -8 0
-8 6 0 20 8 14 8 20 0 20 -6 0 -8 5 -4 11 10 17 11 52 2 71 -5 9 -4 19 2 23 6
4 6 15 0 30 -5 14 -6 25 -1 25 5 0 5 17 1 38 -3 20 -3 49 1 65 4 15 3 27 -2
27 -6 0 -6 7 0 19 6 10 8 21 5 24 -10 10 -11 57 -2 57 5 0 7 4 4 9 -9 14 4 41
19 41 7 0 15 3 17 8 6 13 167 97 328 170 87 39 295 113 361 128 11 2 27 6 38
8 10 2 35 9 55 14 20 6 36 8 36 6 0 -3 8 -1 18 5 9 5 35 11 57 15 22 3 49 7
60 10 22 4 97 14 165 22 25 2 85 6 133 8 49 2 91 7 95 10 3 4 8 3 11 -1 3 -5
23 -8 44 -8z m5152 5 c0 0 50 -3 110 -6 61 -2 126 -7 145 -9 19 -3 53 -7 75
-10 200 -23 524 -114 705 -197 233 -108 369 -184 369 -207 0 -9 2 -25 4 -36 2
-11 0 -28 -5 -37 -6 -12 -5 -18 2 -18 8 0 8 -6 0 -20 -8 -14 -8 -20 0 -20 8 0
8 -6 0 -20 -8 -14 -8 -20 0 -20 6 0 8 -5 4 -11 -10 -17 -11 -52 -2 -71 5 -9 4
-19 -2 -23 -6 -4 -6 -15 0 -30 5 -14 6 -25 2 -25 -4 0 -7 -11 -7 -25 0 -14 3
-25 7 -25 4 0 3 -12 -2 -26 -6 -15 -6 -23 -1 -19 6 3 6 -6 1 -25 -5 -16 -5
-30 -1 -30 5 0 5 -18 1 -39 -4 -21 -3 -46 2 -54 5 -9 4 -18 -1 -22 -7 -4 -7
-15 -1 -30 5 -14 6 -25 2 -25 -4 0 -7 -11 -7 -25 0 -14 3 -25 7 -25 4 0 3 -12
-2 -26 -6 -15 -6 -23 -1 -19 6 3 6 -6 1 -25 -5 -16 -5 -30 -2 -30 9 0 7 -64
-3 -79 -3 -6 -1 -11 5 -11 8 0 8 -6 0 -20 -8 -14 -8 -20 0 -20 8 0 8 -6 0 -20
-8 -14 -8 -20 0 -20 6 0 8 -5 4 -11 -10 -17 -11 -52 -2 -71 5 -9 4 -19 -2 -23
-6 -4 -6 -15 0 -30 5 -14 6 -25 1 -25 -5 0 -5 -17 -1 -38 3 -20 3 -49 -1 -65
-4 -16 -3 -27 2 -27 7 0 7 -6 0 -17 -6 -11 -6 -24 0 -35 6 -12 6 -25 -1 -38
-8 -14 -8 -20 0 -20 8 0 8 -6 0 -20 -8 -14 -8 -20 0 -20 8 0 8 -6 0 -20 -8
-14 -8 -20 0 -20 6 0 8 -5 4 -11 -10 -17 -11 -52 -2 -71 5 -9 4 -19 -2 -23 -6
-4 -6 -15 0 -30 5 -14 6 -25 2 -25 -4 0 -7 -11 -7 -25 0 -14 3 -25 7 -25 4 0
3 -12 -2 -26 -6 -15 -6 -23 -1 -19 6 3 6 -6 1 -25 -5 -16 -5 -30 -1 -30 5 0 5
-18 1 -39 -4 -21 -3 -46 2 -54 5 -9 4 -18 -1 -22 -7 -4 -7 -15 -1 -30 5 -14 6
-25 2 -25 -4 0 -7 -11 -7 -25 0 -14 3 -25 7 -25 4 0 3 -12 -2 -26 -6 -15 -6
-23 -1 -19 6 3 6 -6 1 -25 -5 -16 -5 -30 -2 -30 9 0 7 -64 -3 -79 -3 -6 -1
-11 5 -11 8 0 8 -6 0 -20 -8 -14 -8 -20 0 -20 8 0 8 -6 0 -20 -8 -14 -8 -20 0
-20 6 0 8 -5 4 -11 -10 -17 -11 -52 -2 -71 5 -9 4 -19 -2 -23 -6 -4 -6 -15 0
-30 5 -14 6 -25 1 -25 -5 0 -5 -17 -1 -38 3 -20 3 -49 -1 -65 -4 -16 -3 -27 2
-27 7 0 7 -6 0 -17 -6 -11 -6 -24 0 -35 6 -12 6 -25 -1 -38 -8 -14 -8 -20 0
-20 8 0 8 -6 0 -20 -8 -14 -8 -20 0 -20 8 0 8 -6 0 -20 -8 -14 -8 -20 0 -20 6
0 8 -5 4 -11 -10 -17 -11 -52 -2 -71 5 -9 4 -19 -2 -23 -6 -4 -6 -15 0 -30 5
-14 6 -25 2 -25 -4 0 -7 -11 -7 -25 0 -14 3 -25 7 -25 4 0 3 -12 -2 -26 -6
-15 -6 -23 -1 -19 6 3 6 -6 1 -25 -5 -16 -5 -30 -1 -30 5 0 5 -18 1 -39 -4
-21 -3 -46 2 -54 5 -9 4 -18 -1 -22 -7 -4 -7 -15 -1 -30 5 -14 6 -25 2 -25 -4
0 -7 -11 -7 -25 0 -14 3 -25 7 -25 4 0 3 -12 -2 -26 -6 -15 -6 -23 -1 -19 6 3
6 -6 1 -25 -5 -16 -5 -30 -2 -30 9 0 7 -64 -3 -79 -3 -6 -1 -11 5 -11 8 0 8
-6 0 -20 -8 -14 -8 -20 0 -20 8 0 8 -6 0 -20 -8 -14 -8 -20 0 -20 6 0 8 -5 4
-11 -10 -17 -11 -52 -2 -71 5 -9 4 -19 -2 -23 -6 -4 -6 -15 0 -30 5 -14 6 -25
1 -25 -5 0 -5 -17 -1 -38 3 -20 3 -49 -1 -65 -4 -16 -3 -27 2 -27 7 0 7 -6 0
-17 -6 -11 -6 -24 0 -35 6 -12 6 -25 -1 -38 -8 -14 -8 -20 0 -20 8 0 8 -6 0
-20 -8 -14 -8 -20 0 -20 8 0 8 -6 0 -20 -8 -14 -8 -20 0 -20 6 0 8 -5 4 -11
-10 -17 -11 -52 -2 -71 5 -9 4 -19 -2 -23 -6 -4 -6 -15 0 -30 5 -14 6 -25 2
-25 -4 0 -7 -11 -7 -25 0 -14 3 -25 7 -25 4 0 3 -12 -2 -26 -6 -15 -6 -23 -1
-19 6 3 6 -6 1 -25 -5 -16 -5 -30 -1 -30 5 0 5 -18 1 -39 -4 -21 -3 -46 2 -54
5 -9 4 -18 -1 -22 -7 -4 -7 -15 -1 -30 5 -14 6 -25 2 -25 -4 0 -7 -11 -7 -25
0 -14 3 -25 7 -25 4 0 3 -12 -2 -26 -6 -15 -6 -23 -1 -19 6 3 6 -6 1 -25 -5
-16 -5 -30 -2 -30 9 0 7 -64 -3 -79 -3 -6 -1 -11 5 -11 8 0 8 -6 0 -20 -8 -14
-8 -20 0 -20 8 0 8 -6 0 -20 -8 -14 -8 -20 0 -20 6 0 8 -5 4 -11 -10 -17 -11
-52 -2 -71 5 -9 4 -19 -2 -23 -6 -4 -6 -15 0 -30 5 -14 6 -25 1 -25 -5 0 -5
-17 -1 -38 3 -20 3 -49 -1 -65 -4 -16 -3 -27 2 -27 7 0 7 -6 0 -17 -6 -11 -6
-24 0 -35 6 -12 6 -25 -1 -38 -8 -14 -8 -20 0 -20 8 0 8 -6 0 -20 -8 -14 -8
-20 0 -20 8 0 8 -6 0 -20 -8 -14 -8 -20 0 -20 6 0 8 -5 4 -11 -10 -17 -11 -52
-2 -71 5 -9 4 -19 -2 -23 -6 -4 -6 -15 0 -30 5 -14 6 -25 2 -25 -4 0 -7 -11
-7 -25 0 -14 3 -25 7 -25 4 0 3 -12 -2 -26 -6 -15 -6 -23 -1 -19 6 3 6 -6 1
-25 -5 -16 -5 -30 -1 -30 5 0 5 -18 1 -39 -4 -21 -3 -46 2 -54 5 -9 4 -18 -1
-22 -7 -4 -7 -15 -1 -30 6 -15 6 -25 0 -25 -5 0 -5 -12 0 -30 5 -18 5 -32 -1
-36 -7 -4 -6 -10 0 -18 6 -7 6 -17 1 -26 -5 -8 -5 -21 1 -32 5 -10 6 -18 1
-18 -14 0 -107 33 -112 40 -3 3 -45 21 -95 39 -49 18 -99 36 -110 41 -43 19
-206 69 -357 109 -71 19 -98 25 -155 36 -16 3 -39 8 -53 11 -31 8 -78 16 -165
29 -27 4 -61 9 -75 11 -260 45 -746 49 -1055 9 -22 -3 -60 -8 -85 -10 -25 -3
-56 -8 -68 -11 -13 -3 -43 -7 -65 -10 -45 -6 -68 -10 -107 -19 -14 -3 -38 -8
-55 -10 -16 -3 -37 -8 -45 -10 -8 -2 -26 -6 -40 -9 -14 -3 -36 -8 -50 -11 -14
-3 -36 -8 -50 -11 -14 -3 -46 -11 -72 -19 -27 -8 -48 -12 -48 -9 0 3 -6 2 -12
-3 -7 -4 -17 -8 -23 -9 -5 -1 -29 -9 -53 -18 -23 -8 -43 -15 -45 -14 -2 1 -49
-13 -97 -28 -8 -3 -16 -5 -17 -5 -7 0 -224 -79 -258 -94 -22 -9 -44 -18 -50
-19 -5 -2 -29 -11 -52 -20 -43 -18 -61 -19 -55 -1 6 17 3 275 -3 285 -3 5 -1
11 5 15 6 4 8 11 4 16 -3 5 -5 65 -5 132 1 67 1 176 1 242 0 142 1 365 2 374
0 3 0 11 -1 16 -2 10 -1 290 0 303 1 4 1 12 0 17 -1 6 -2 39 -2 75 0 36 1 115
1 175 0 61 0 147 0 193 0 45 0 143 0 217 1 74 -1 139 -5 144 -3 5 -1 12 5 16
6 4 8 11 4 16 -3 5 -5 65 -5 132 1 110 1 347 0 372 -1 6 0 75 0 155 1 80 1
182 1 228 0 45 0 143 0 217 1 74 -1 139 -5 144 -3 5 -1 12 5 16 6 4 8 11 4 16
-3 5 -5 65 -5 132 1 67 1 176 1 242 0 142 1 365 2 374 0 3 0 11 -1 16 -2 10
-1 290 0 303 1 4 1 12 0 17 -1 6 -2 39 -2 75 0 36 1 115 1 175 0 61 0 147 0
193 0 45 0 143 0 217 1 74 -1 139 -5 144 -3 5 -1 12 5 16 6 4 8 11 5 16 -4 5
-6 57 -6 115 0 78 4 109 15 120 8 7 17 14 19 14 3 0 40 24 83 53 100 67 276
168 424 243 63 32 117 59 120 59 3 1 23 9 45 19 69 31 180 78 190 80 6 1 26 9
46 18 39 17 282 95 314 101 11 2 28 7 37 12 10 4 29 8 43 9 14 0 25 4 25 7 0
3 6 6 13 6 12 1 50 8 97 18 70 16 174 34 230 40 30 3 71 8 92 11 20 2 82 6
138 9 56 2 103 5 105 7 3 3 80 1 80 -2z"/>
</g>
</svg>
