<svg width="187" height="29" viewBox="0 0 187 29" fill="none" xmlns="http://www.w3.org/2000/svg">
<path d="M59.01 22.6V25H44.55V3.7H58.74V6.1H47.25V13H57.24V15.25H47.25V22.6H59.01ZM75.2241 8.17C74.9841 7.89 74.6641 7.62 74.2641 7.36C73.8641 7.1 73.4141 6.87 72.9141 6.67C72.4141 6.45 71.8641 6.28 71.2641 6.16C70.6841 6.02 70.0741 5.95 69.4341 5.95C67.7741 5.95 66.5541 6.26 65.7741 6.88C65.0141 7.5 64.6341 8.35 64.6341 9.43C64.6341 10.01 64.7441 10.49 64.9641 10.87C65.1841 11.25 65.5241 11.58 65.9841 11.86C66.4641 12.12 67.0541 12.35 67.7541 12.55C68.4541 12.75 69.2841 12.96 70.2441 13.18C71.3441 13.42 72.3341 13.7 73.2141 14.02C74.1141 14.32 74.8741 14.7 75.4941 15.16C76.1341 15.62 76.6141 16.18 76.9341 16.84C77.2741 17.5 77.4441 18.31 77.4441 19.27C77.4441 20.29 77.2441 21.18 76.8441 21.94C76.4441 22.68 75.8941 23.3 75.1941 23.8C74.5141 24.28 73.7041 24.64 72.7641 24.88C71.8241 25.1 70.8041 25.21 69.7041 25.21C68.0641 25.21 66.5041 24.96 65.0241 24.46C63.5641 23.94 62.2341 23.19 61.0341 22.21L62.3241 19.93C62.6441 20.27 63.0541 20.61 63.5541 20.95C64.0741 21.29 64.6541 21.6 65.2941 21.88C65.9541 22.14 66.6541 22.36 67.3941 22.54C68.1541 22.7 68.9441 22.78 69.7641 22.78C71.2841 22.78 72.4641 22.51 73.3041 21.97C74.1441 21.43 74.5641 20.62 74.5641 19.54C74.5641 18.94 74.4241 18.44 74.1441 18.04C73.8841 17.62 73.4941 17.26 72.9741 16.96C72.4541 16.66 71.8041 16.4 71.0241 16.18C70.2641 15.94 69.3941 15.7 68.4141 15.46C67.3341 15.2 66.3841 14.92 65.5641 14.62C64.7441 14.32 64.0541 13.96 63.4941 13.54C62.9541 13.12 62.5441 12.61 62.2641 12.01C61.9841 11.41 61.8441 10.69 61.8441 9.85C61.8441 8.83 62.0341 7.93 62.4141 7.15C62.7941 6.37 63.3241 5.71 64.0041 5.17C64.6841 4.63 65.4941 4.23 66.4341 3.97C67.3741 3.69 68.3941 3.55 69.4941 3.55C70.9341 3.55 72.2341 3.77 73.3941 4.21C74.5541 4.65 75.5841 5.24 76.4841 5.98L75.2241 8.17ZM93.5053 8.17C93.2653 7.89 92.9453 7.62 92.5453 7.36C92.1453 7.1 91.6953 6.87 91.1953 6.67C90.6953 6.45 90.1453 6.28 89.5453 6.16C88.9653 6.02 88.3553 5.95 87.7153 5.95C86.0553 5.95 84.8353 6.26 84.0553 6.88C83.2953 7.5 82.9153 8.35 82.9153 9.43C82.9153 10.01 83.0253 10.49 83.2453 10.87C83.4653 11.25 83.8053 11.58 84.2653 11.86C84.7453 12.12 85.3353 12.35 86.0353 12.55C86.7353 12.75 87.5653 12.96 88.5253 13.18C89.6253 13.42 90.6153 13.7 91.4953 14.02C92.3953 14.32 93.1553 14.7 93.7753 15.16C94.4153 15.62 94.8953 16.18 95.2153 16.84C95.5553 17.5 95.7253 18.31 95.7253 19.27C95.7253 20.29 95.5253 21.18 95.1253 21.94C94.7253 22.68 94.1753 23.3 93.4753 23.8C92.7953 24.28 91.9853 24.64 91.0453 24.88C90.1053 25.1 89.0853 25.21 87.9853 25.21C86.3453 25.21 84.7853 24.96 83.3053 24.46C81.8453 23.94 80.5153 23.19 79.3153 22.21L80.6053 19.93C80.9253 20.27 81.3353 20.61 81.8353 20.95C82.3553 21.29 82.9353 21.6 83.5753 21.88C84.2353 22.14 84.9353 22.36 85.6753 22.54C86.4353 22.7 87.2253 22.78 88.0453 22.78C89.5653 22.78 90.7453 22.51 91.5853 21.97C92.4253 21.43 92.8453 20.62 92.8453 19.54C92.8453 18.94 92.7053 18.44 92.4253 18.04C92.1653 17.62 91.7753 17.26 91.2553 16.96C90.7353 16.66 90.0853 16.4 89.3053 16.18C88.5453 15.94 87.6753 15.7 86.6953 15.46C85.6153 15.2 84.6653 14.92 83.8453 14.62C83.0253 14.32 82.3353 13.96 81.7753 13.54C81.2353 13.12 80.8253 12.61 80.5453 12.01C80.2653 11.41 80.1253 10.69 80.1253 9.85C80.1253 8.83 80.3153 7.93 80.6953 7.15C81.0753 6.37 81.6053 5.71 82.2853 5.17C82.9653 4.63 83.7753 4.23 84.7153 3.97C85.6553 3.69 86.6753 3.55 87.7753 3.55C89.2153 3.55 90.5153 3.77 91.6753 4.21C92.8353 4.65 93.8653 5.24 94.7653 5.98L93.5053 8.17ZM105.346 3.7H107.626L116.326 25H113.446L110.926 18.76H101.986L99.4964 25H96.6164L105.346 3.7ZM110.326 16.66L106.486 6.82L102.526 16.66H110.326ZM117.635 3.7L124.085 14.8L130.595 3.7H133.535L125.435 17.23V25H122.735V17.17L114.665 3.7H117.635Z" fill="white"/>
<path d="M135.854 25V21.64H138.074V25H135.854ZM158.898 19.51C158.898 20.33 158.728 21.08 158.388 21.76C158.068 22.44 157.618 23.02 157.038 23.5C156.478 23.98 155.818 24.35 155.058 24.61C154.318 24.87 153.518 25 152.658 25H142.548V3.7H153.138C153.878 3.7 154.548 3.86 155.148 4.18C155.748 4.5 156.258 4.92 156.678 5.44C157.098 5.94 157.418 6.52 157.638 7.18C157.878 7.82 157.998 8.47 157.998 9.13C157.998 10.19 157.728 11.17 157.188 12.07C156.668 12.97 155.918 13.64 154.938 14.08C156.158 14.44 157.118 15.11 157.818 16.09C158.538 17.05 158.898 18.19 158.898 19.51ZM156.168 19.03C156.168 18.55 156.078 18.09 155.898 17.65C155.738 17.19 155.508 16.79 155.208 16.45C154.928 16.11 154.588 15.84 154.188 15.64C153.788 15.44 153.348 15.34 152.868 15.34H145.248V22.66H152.658C153.158 22.66 153.618 22.56 154.038 22.36C154.458 22.16 154.828 21.9 155.148 21.58C155.468 21.24 155.718 20.85 155.898 20.41C156.078 19.97 156.168 19.51 156.168 19.03ZM145.248 6.04V13.15H152.028C152.508 13.15 152.948 13.06 153.348 12.88C153.748 12.68 154.088 12.42 154.368 12.1C154.668 11.78 154.898 11.41 155.058 10.99C155.238 10.55 155.328 10.09 155.328 9.61C155.328 9.11 155.248 8.64 155.088 8.2C154.928 7.76 154.708 7.38 154.428 7.06C154.168 6.74 153.838 6.49 153.438 6.31C153.058 6.13 152.648 6.04 152.208 6.04H145.248ZM162.675 25V3.7H165.375V25H162.675ZM168.878 22.9L182.618 6.1H169.148V3.7H185.768V5.8L172.268 22.6H185.768V25H168.878V22.9Z" fill="#E8BB46"/>
<path d="M16 4.98962V25.9896M16 4.98962C16 4.98962 9 -1.01038 2 3.98962V25.9896C9 20.9896 16 25.9896 16 25.9896C16 25.9896 23 20.9896 30 25.9896V3.98962C23 -1.01038 16 4.98962 16 4.98962Z" stroke="white" stroke-width="3"/>
</svg>
